<svg width="101" height="60" viewBox="0 0 101 60" fill="none" xmlns="http://www.w3.org/2000/svg">
<path d="M14.1521 43.5C11.883 43.5 10.0434 41.6605 10.0434 39.3913C10.0434 37.1221 11.883 35.2826 14.1521 35.2826H18.2608V39.3913C18.2608 41.6605 16.4213 43.5 14.1521 43.5ZM23.5 24.7174H19.3913V16.5H23.5C25.7692 16.5 27.6087 18.3395 27.6087 20.6087C27.6087 22.8779 25.7692 24.7174 23.5 24.7174ZM14.1087 24.7174H18.2174V16.5H14.1087C11.8395 16.5 10 18.3395 10 20.6087C10 22.8779 11.8395 24.7174 14.1087 24.7174ZM14.1087 34.1087H18.2174V25.8913H14.1087C11.8395 25.8913 10 27.7308 10 30C10 32.2692 11.8395 34.1087 14.1087 34.1087ZM22.913 25.8913C21.979 25.8913 21.0833 26.2623 20.4228 26.9228C19.7623 27.5833 19.3913 28.479 19.3913 29.413C19.3913 30.3471 19.7623 31.2428 20.4228 31.9033C21.0833 32.5637 21.979 32.9348 22.913 32.9348C23.8471 32.9348 24.7428 32.5637 25.4033 31.9033C26.0637 31.2428 26.4348 30.3471 26.4348 29.413C26.4348 28.479 26.0637 27.5833 25.4033 26.9228C24.7428 26.2623 23.8471 25.8913 22.913 25.8913Z" fill="#F2F2F2"/>
<path d="M39.325 36V24.832H47.421V26.272H41.021V29.488H45.453V30.928H41.021V36H39.325ZM52.9793 36V27.2H54.5953V36H52.9793ZM49.7313 36V34.688H57.6193V36H49.7313ZM50.8993 28.512V27.2H53.7793V28.512H50.8993ZM52.8673 25.696V23.952H54.6753V25.696H52.8673ZM66.5535 28.464L66.6015 27.2H68.1215V35.04C68.1215 36.3413 67.7695 37.3333 67.0655 38.016C66.3722 38.6987 65.3215 39.04 63.9135 39.04C63.1349 39.04 62.4575 38.9333 61.8815 38.72C61.3162 38.5067 60.8682 38.1867 60.5375 37.76C60.2175 37.344 60.0362 36.8213 59.9935 36.192H61.6735C61.7269 36.672 61.9402 37.04 62.3135 37.296C62.6975 37.5627 63.2575 37.696 63.9935 37.696C64.8255 37.696 65.4495 37.4827 65.8655 37.056C66.2922 36.6293 66.5055 36.0213 66.5055 35.232V34.064C66.2069 34.512 65.8069 34.864 65.3055 35.12C64.8149 35.376 64.2655 35.504 63.6575 35.504C62.9002 35.504 62.2282 35.3227 61.6415 34.96C61.0655 34.5973 60.6122 34.096 60.2815 33.456C59.9509 32.8053 59.7855 32.0747 59.7855 31.264C59.7855 30.3893 59.9562 29.6373 60.2975 29.008C60.6389 28.368 61.1082 27.8773 61.7055 27.536C62.3029 27.184 62.9802 27.008 63.7375 27.008C64.3455 27.008 64.8949 27.1413 65.3855 27.408C65.8762 27.6747 66.2655 28.0267 66.5535 28.464ZM64.0095 34.24C64.5855 34.24 65.0975 34.0747 65.5455 33.744C66.0042 33.4027 66.3242 32.944 66.5055 32.368V30.144C66.3242 29.568 66.0042 29.1147 65.5455 28.784C65.0975 28.4427 64.5855 28.272 64.0095 28.272C63.4869 28.272 63.0282 28.4 62.6335 28.656C62.2495 28.912 61.9455 29.264 61.7215 29.712C61.5082 30.1493 61.4015 30.6613 61.4015 31.248C61.4015 31.824 61.5082 32.3413 61.7215 32.8C61.9455 33.248 62.2495 33.6 62.6335 33.856C63.0282 34.112 63.4869 34.24 64.0095 34.24ZM77.4238 36V29.568C77.4238 29.184 77.3544 28.8853 77.2158 28.672C77.0878 28.4587 76.8851 28.352 76.6078 28.352C76.2238 28.352 75.8771 28.5973 75.5678 29.088C75.2691 29.5787 75.0611 30.352 74.9438 31.408L74.7998 30.048C74.8318 29.088 75.0558 28.3413 75.4718 27.808C75.8984 27.2747 76.4211 27.008 77.0398 27.008C77.6158 27.008 78.0691 27.2213 78.3998 27.648C78.7411 28.064 78.9118 28.6613 78.9118 29.44V36H77.4238ZM70.1118 36V27.2H71.5358L71.5998 28.912V36H70.1118ZM73.7758 36V29.568C73.7758 29.1627 73.7011 28.8587 73.5518 28.656C73.4131 28.4533 73.1998 28.352 72.9118 28.352C72.5064 28.352 72.1598 28.608 71.8718 29.12C71.5838 29.632 71.3811 30.3947 71.2638 31.408L71.2318 30C71.2531 29.3707 71.3651 28.832 71.5678 28.384C71.7704 27.936 72.0318 27.5947 72.3518 27.36C72.6718 27.1253 73.0131 27.008 73.3758 27.008C73.9731 27.008 74.4318 27.2267 74.7518 27.664C75.0824 28.0907 75.2478 28.6773 75.2478 29.424V36H73.7758ZM87.222 36L87.158 34V30.24C87.158 29.6107 86.95 29.12 86.534 28.768C86.1287 28.4053 85.5687 28.224 84.854 28.224C84.1607 28.224 83.5954 28.384 83.158 28.704C82.7207 29.0133 82.4807 29.4453 82.438 30H80.854C80.9074 29.3707 81.11 28.8373 81.462 28.4C81.814 27.952 82.2834 27.6107 82.87 27.376C83.4567 27.1307 84.134 27.008 84.902 27.008C85.6914 27.008 86.374 27.1413 86.95 27.408C87.526 27.664 87.9687 28.0373 88.278 28.528C88.598 29.0187 88.758 29.616 88.758 30.32V36H87.222ZM84.038 36.192C83.462 36.192 82.9554 36.0907 82.518 35.888C82.0807 35.6747 81.7394 35.376 81.494 34.992C81.2487 34.5973 81.126 34.1387 81.126 33.616C81.126 32.7093 81.4727 32.0053 82.166 31.504C82.87 31.0027 83.8514 30.752 85.11 30.752H87.366V31.952H85.046C84.3207 31.952 83.75 32.0907 83.334 32.368C82.9287 32.6453 82.726 33.0347 82.726 33.536C82.726 33.952 82.87 34.2773 83.158 34.512C83.4567 34.7467 83.8567 34.864 84.358 34.864C84.998 34.864 85.5634 34.6933 86.054 34.352C86.5554 34 86.9607 33.52 87.27 32.912L87.446 34.096C87.1687 34.768 86.742 35.2853 86.166 35.648C85.59 36.0107 84.8807 36.192 84.038 36.192Z" fill="#F2F2F2"/>
</svg>
