<svg width="170" height="60" viewBox="0 0 170 60" fill="none" xmlns="http://www.w3.org/2000/svg">
<path d="M10 16.5L12.0904 40.354L21.4701 43.5L30.9096 40.354L33 16.5H10ZM28.4599 24.2083H17.451L17.6966 27.1855H28.2143L27.3997 36.1292L21.5359 37.7565V37.7746H21.4701L15.5583 36.1292L15.199 31.5609H18.056L18.2656 33.8571L21.4701 34.731L24.6865 33.8571L25.0458 30.1085H15.0492L14.2826 21.3335H28.7234L28.4599 24.2083Z" fill="#F2F2F2"/>
<path d="M43 16.5L45.0904 40.354L54.5 43.5L63.9096 40.354L66 16.5H43ZM61.7534 21.3214L61.4659 24.1721L54.5599 27.1433L54.5419 27.1493H61.2203L60.4536 35.9846L54.5719 37.7143L48.6542 35.9545L48.2708 31.5007H51.1997L51.3914 33.8089L54.5419 34.6105L57.8182 33.6824L58.0398 29.9699L48.0792 29.9397V29.9337L48.0672 29.9397L47.8516 27.1493L54.5659 24.3348L54.9552 24.1721H47.594L47.2466 21.3214H61.7534Z" fill="#F2F2F2"/>
<path d="M84.039 36V24.832H85.735V36H84.039ZM77.431 36V24.832H79.127V36H77.431ZM78.887 30.928V29.488H84.263V30.928H78.887ZM92.7013 36C92.1573 36 91.6933 35.8933 91.3093 35.68C90.9253 35.456 90.6373 35.1413 90.4453 34.736C90.2533 34.3307 90.1573 33.856 90.1573 33.312V25.536L91.7733 24.656V33.312C91.7733 33.568 91.8106 33.8027 91.8853 34.016C91.9599 34.2293 92.1039 34.3947 92.3173 34.512C92.5413 34.6293 92.8666 34.688 93.2933 34.688H95.9333V36H92.7013ZM88.0773 28.512V27.2H94.5253V28.512H88.0773ZM105.3 36V29.568C105.3 29.184 105.23 28.8853 105.092 28.672C104.964 28.4587 104.761 28.352 104.484 28.352C104.1 28.352 103.753 28.5973 103.444 29.088C103.145 29.5787 102.937 30.352 102.82 31.408L102.676 30.048C102.708 29.088 102.932 28.3413 103.348 27.808C103.774 27.2747 104.297 27.008 104.916 27.008C105.492 27.008 105.945 27.2213 106.276 27.648C106.617 28.064 106.788 28.6613 106.788 29.44V36H105.3ZM97.9875 36V27.2H99.4115L99.4755 28.912V36H97.9875ZM101.652 36V29.568C101.652 29.1627 101.577 28.8587 101.428 28.656C101.289 28.4533 101.076 28.352 100.788 28.352C100.382 28.352 100.036 28.608 99.7475 29.12C99.4595 29.632 99.2568 30.3947 99.1395 31.408L99.1075 30C99.1288 29.3707 99.2408 28.832 99.4435 28.384C99.6462 27.936 99.9075 27.5947 100.228 27.36C100.548 27.1253 100.889 27.008 101.252 27.008C101.849 27.008 102.308 27.2267 102.628 27.664C102.958 28.0907 103.124 28.6773 103.124 29.424V36H101.652ZM111.994 36V24.24H113.61V36H111.994ZM108.746 36V34.688H116.874V36H108.746ZM109.914 25.552V24.24H112.794V25.552H109.914ZM119.264 37.552L125.456 24.816H127.136L120.944 37.552H119.264ZM133.798 36.192C132.817 36.192 131.964 35.9467 131.238 35.456C130.524 34.9547 129.969 34.272 129.574 33.408C129.19 32.5333 128.998 31.5307 128.998 30.4C128.998 29.2267 129.201 28.208 129.606 27.344C130.012 26.48 130.577 25.8133 131.302 25.344C132.038 24.8747 132.892 24.64 133.862 24.64C134.641 24.64 135.345 24.7947 135.974 25.104C136.614 25.4027 137.132 25.84 137.526 26.416C137.932 26.9813 138.166 27.6587 138.23 28.448H136.374C136.289 27.7333 136.022 27.1627 135.574 26.736C135.126 26.2987 134.55 26.08 133.846 26.08C133.238 26.08 132.7 26.256 132.23 26.608C131.772 26.9493 131.414 27.4453 131.158 28.096C130.902 28.7467 130.774 29.52 130.774 30.416C130.774 31.312 130.902 32.0853 131.158 32.736C131.425 33.3867 131.788 33.888 132.246 34.24C132.705 34.5813 133.222 34.752 133.798 34.752C134.3 34.752 134.737 34.6507 135.11 34.448C135.484 34.2347 135.782 33.9413 136.006 33.568C136.241 33.1947 136.38 32.7573 136.422 32.256H138.294C138.22 33.0453 137.99 33.7387 137.606 34.336C137.222 34.9227 136.705 35.3813 136.054 35.712C135.414 36.032 134.662 36.192 133.798 36.192ZM144.173 36.192C143.309 36.192 142.557 36.0267 141.917 35.696C141.277 35.3653 140.781 34.8907 140.429 34.272C140.077 33.6533 139.901 32.9013 139.901 32.016H141.581C141.581 32.8907 141.81 33.568 142.269 34.048C142.727 34.5173 143.357 34.752 144.157 34.752C144.839 34.752 145.389 34.5973 145.805 34.288C146.221 33.968 146.429 33.5253 146.429 32.96C146.429 32.576 146.311 32.2667 146.077 32.032C145.853 31.7973 145.549 31.6053 145.165 31.456C144.791 31.3067 144.381 31.1733 143.933 31.056C143.485 30.9387 143.031 30.8107 142.573 30.672C142.125 30.5227 141.709 30.336 141.325 30.112C140.951 29.888 140.647 29.5893 140.413 29.216C140.189 28.8427 140.077 28.368 140.077 27.792C140.077 27.184 140.237 26.6453 140.557 26.176C140.887 25.696 141.341 25.3227 141.917 25.056C142.503 24.7787 143.191 24.64 143.981 24.64C144.749 24.64 145.437 24.784 146.045 25.072C146.653 25.3493 147.138 25.7493 147.501 26.272C147.874 26.784 148.066 27.4027 148.077 28.128H146.381C146.37 27.7013 146.253 27.3387 146.029 27.04C145.815 26.7307 145.527 26.496 145.165 26.336C144.813 26.1653 144.418 26.08 143.981 26.08C143.351 26.08 142.839 26.2293 142.445 26.528C142.05 26.8267 141.853 27.232 141.853 27.744C141.853 28.1067 141.965 28.3947 142.189 28.608C142.423 28.8213 142.727 28.9973 143.101 29.136C143.485 29.264 143.901 29.3867 144.349 29.504C144.807 29.6107 145.261 29.7387 145.709 29.888C146.157 30.0267 146.567 30.2187 146.941 30.464C147.325 30.6987 147.629 31.0187 147.852 31.424C148.087 31.8187 148.205 32.3253 148.205 32.944C148.205 33.6053 148.029 34.1813 147.677 34.672C147.325 35.152 146.845 35.5253 146.237 35.792C145.629 36.0587 144.941 36.192 144.173 36.192ZM154.579 36.192C153.715 36.192 152.963 36.0267 152.323 35.696C151.683 35.3653 151.187 34.8907 150.835 34.272C150.483 33.6533 150.307 32.9013 150.307 32.016H151.987C151.987 32.8907 152.216 33.568 152.675 34.048C153.133 34.5173 153.763 34.752 154.563 34.752C155.245 34.752 155.795 34.5973 156.211 34.288C156.627 33.968 156.835 33.5253 156.835 32.96C156.835 32.576 156.717 32.2667 156.483 32.032C156.259 31.7973 155.955 31.6053 155.571 31.456C155.197 31.3067 154.787 31.1733 154.339 31.056C153.891 30.9387 153.437 30.8107 152.979 30.672C152.531 30.5227 152.115 30.336 151.731 30.112C151.357 29.888 151.053 29.5893 150.819 29.216C150.595 28.8427 150.483 28.368 150.483 27.792C150.483 27.184 150.643 26.6453 150.963 26.176C151.293 25.696 151.747 25.3227 152.323 25.056C152.909 24.7787 153.597 24.64 154.387 24.64C155.155 24.64 155.843 24.784 156.451 25.072C157.059 25.3493 157.544 25.7493 157.907 26.272C158.28 26.784 158.472 27.4027 158.483 28.128H156.787C156.776 27.7013 156.659 27.3387 156.435 27.04C156.221 26.7307 155.933 26.496 155.571 26.336C155.219 26.1653 154.824 26.08 154.387 26.08C153.757 26.08 153.245 26.2293 152.851 26.528C152.456 26.8267 152.259 27.232 152.259 27.744C152.259 28.1067 152.371 28.3947 152.595 28.608C152.829 28.8213 153.133 28.9973 153.507 29.136C153.891 29.264 154.307 29.3867 154.755 29.504C155.213 29.6107 155.667 29.7387 156.115 29.888C156.563 30.0267 156.973 30.2187 157.347 30.464C157.731 30.6987 158.035 31.0187 158.259 31.424C158.493 31.8187 158.611 32.3253 158.611 32.944C158.611 33.6053 158.435 34.1813 158.083 34.672C157.731 35.152 157.251 35.5253 156.643 35.792C156.035 36.0587 155.347 36.192 154.579 36.192Z" fill="#F2F2F2"/>
</svg>
