<svg width="234" height="60" viewBox="0 0 234 60" fill="none" xmlns="http://www.w3.org/2000/svg">
<path d="M13 16.5C11.3477 16.5 10 17.8477 10 19.5V40.5C10 42.1523 11.3477 43.5 13 43.5H34C35.6523 43.5 37 42.1523 37 40.5V19.5C37 17.8477 35.6523 16.5 34 16.5H13ZM28.75 23.25C29.5 23.25 30.1094 23.8594 30.1094 24.6094C30.1094 25.3594 29.5 25.9688 28.75 25.9688C28 25.9688 27.3906 25.3594 27.3906 24.6094C27.3906 23.8594 28 23.25 28.75 23.25ZM20.0312 23.8594H22.4688L26.5 36.6094H23.6406L22.8906 34.0312H19.4688L18.7188 36.6094H16L20.0312 23.8594ZM27.5312 27.1406H30.1094V36.6094H27.5312V27.1406ZM21.25 27.2812L20.0312 31.7812H22.4688L21.25 27.2812Z" fill="#F2F2F2"/>
<path d="M49.2389 33.184V31.744H55.4309V33.184H49.2389ZM51.0309 24.832H53.4629L56.9189 36H55.1749L52.9189 28.608L52.2469 26.16L51.5749 28.624L49.2869 36H47.5749L51.0309 24.832ZM62.1891 27.008C62.7971 27.008 63.3518 27.1307 63.8531 27.376C64.3545 27.6107 64.7598 27.9413 65.0691 28.368V24.24H66.6691V36H65.1491L65.1011 34.768C64.7918 35.1947 64.3811 35.5413 63.8691 35.808C63.3678 36.064 62.8078 36.192 62.1891 36.192C61.4105 36.192 60.7225 35.9947 60.1251 35.6C59.5278 35.2053 59.0585 34.6613 58.7171 33.968C58.3865 33.2747 58.2211 32.4853 58.2211 31.6C58.2211 30.704 58.3865 29.9093 58.7171 29.216C59.0585 28.5227 59.5278 27.984 60.1251 27.6C60.7225 27.2053 61.4105 27.008 62.1891 27.008ZM62.5411 34.832C63.1171 34.832 63.6291 34.672 64.0771 34.352C64.5251 34.0213 64.8558 33.5787 65.0691 33.024V30.16C64.8558 29.5947 64.5251 29.1573 64.0771 28.848C63.6291 28.528 63.1171 28.368 62.5411 28.368C62.0078 28.368 61.5385 28.5067 61.1331 28.784C60.7278 29.0507 60.4078 29.4293 60.1731 29.92C59.9491 30.4 59.8371 30.96 59.8371 31.6C59.8371 32.2293 59.9491 32.7893 60.1731 33.28C60.4078 33.76 60.7278 34.1387 61.1331 34.416C61.5385 34.6933 62.0078 34.832 62.5411 34.832ZM73.0434 36.192C72.1367 36.192 71.3527 36.0053 70.6914 35.632C70.0407 35.2587 69.5394 34.7307 69.1874 34.048C68.8354 33.3547 68.6594 32.5387 68.6594 31.6C68.6594 30.64 68.8354 29.824 69.1874 29.152C69.5394 28.4693 70.0407 27.9413 70.6914 27.568C71.3527 27.1947 72.142 27.008 73.0594 27.008C74.4247 27.008 75.4967 27.4187 76.2754 28.24C77.054 29.0507 77.4434 30.1707 77.4434 31.6C77.4434 32.5387 77.2674 33.3547 76.9154 34.048C76.5634 34.7307 76.0567 35.2587 75.3954 35.632C74.7447 36.0053 73.9607 36.192 73.0434 36.192ZM73.0594 34.848C73.9127 34.848 74.5847 34.56 75.0754 33.984C75.5767 33.3973 75.8274 32.6027 75.8274 31.6C75.8274 30.5867 75.5767 29.792 75.0754 29.216C74.5847 28.64 73.9127 28.352 73.0594 28.352C72.1954 28.352 71.518 28.64 71.0274 29.216C70.5367 29.792 70.2914 30.5867 70.2914 31.6C70.2914 32.6027 70.5367 33.3973 71.0274 33.984C71.518 34.56 72.1954 34.848 73.0594 34.848ZM83.9936 27.008C84.783 27.008 85.471 27.2053 86.0576 27.6C86.655 27.984 87.1243 28.5227 87.4656 29.216C87.807 29.9093 87.9776 30.704 87.9776 31.6C87.9776 32.4853 87.807 33.2747 87.4656 33.968C87.1243 34.6613 86.655 35.2053 86.0576 35.6C85.471 35.9947 84.783 36.192 83.9936 36.192C83.3856 36.192 82.8256 36.064 82.3136 35.808C81.8123 35.5413 81.407 35.1947 81.0976 34.768L81.0496 36H79.5136V24.24H81.1296V28.368C81.439 27.9413 81.8443 27.6107 82.3456 27.376C82.847 27.1307 83.3963 27.008 83.9936 27.008ZM83.6416 34.832C84.1856 34.832 84.6603 34.6933 85.0656 34.416C85.471 34.1387 85.7856 33.76 86.0096 33.28C86.2336 32.7893 86.3456 32.2293 86.3456 31.6C86.3456 30.96 86.2336 30.4 86.0096 29.92C85.7856 29.4293 85.471 29.0507 85.0656 28.784C84.6603 28.5067 84.1856 28.368 83.6416 28.368C83.0763 28.368 82.5696 28.528 82.1216 28.848C81.6736 29.1573 81.343 29.5947 81.1296 30.16V33.024C81.343 33.5787 81.6736 34.0213 82.1216 34.352C82.5696 34.672 83.0763 34.832 83.6416 34.832ZM93.9679 36.192C93.0612 36.192 92.2772 36.0107 91.6159 35.648C90.9545 35.2747 90.4479 34.7467 90.0959 34.064C89.7439 33.3707 89.5679 32.544 89.5679 31.584C89.5679 30.624 89.7439 29.8027 90.0959 29.12C90.4585 28.4373 90.9705 27.9147 91.6319 27.552C92.3039 27.1893 93.1039 27.008 94.0319 27.008C95.4505 27.008 96.5065 27.4027 97.1999 28.192C97.8932 28.9707 98.1972 30.0427 98.1119 31.408H90.8479L90.8639 30.192L96.4639 30.208C96.4212 29.6427 96.1759 29.1893 95.7279 28.848C95.2799 28.5067 94.7145 28.336 94.0319 28.336C93.1145 28.336 92.4105 28.624 91.9199 29.2C91.4292 29.776 91.1839 30.592 91.1839 31.648C91.1839 32.2773 91.2905 32.8373 91.5039 33.328C91.7279 33.808 92.0479 34.1813 92.4639 34.448C92.8799 34.7147 93.3812 34.848 93.9679 34.848C94.6612 34.848 95.2372 34.6827 95.6959 34.352C96.1652 34.0213 96.4532 33.5733 96.5599 33.008H98.1759C98.0372 34 97.5945 34.7787 96.8479 35.344C96.1012 35.9093 95.1412 36.192 93.9679 36.192ZM113.836 36V24.832H115.532V36H113.836ZM111.036 24.832H118.316V26.272H111.036V24.832ZM111.036 34.56H118.316V36H111.036V34.56ZM124.291 36V24.24H125.907V36H124.291ZM121.043 36V34.688H129.171V36H121.043ZM122.211 25.552V24.24H125.091V25.552H122.211ZM134.697 36V24.24H136.313V36H134.697ZM131.449 36V34.688H139.577V36H131.449ZM132.617 25.552V24.24H135.497V25.552H132.617ZM143.455 27.2V32.752C143.455 33.3707 143.631 33.872 143.983 34.256C144.335 34.6293 144.794 34.816 145.359 34.816C146.01 34.816 146.586 34.5813 147.087 34.112C147.599 33.632 148.004 32.8907 148.303 31.888L148.559 33.696C148.228 34.528 147.748 35.152 147.119 35.568C146.5 35.984 145.823 36.192 145.087 36.192C144.426 36.192 143.85 36.0533 143.359 35.776C142.879 35.488 142.506 35.0933 142.239 34.592C141.972 34.0907 141.839 33.4987 141.839 32.816V27.2H143.455ZM149.727 27.2V36H148.191L148.111 34.016V27.2H149.727ZM156.549 36.192C155.771 36.192 155.083 36.0587 154.485 35.792C153.899 35.5147 153.445 35.1307 153.125 34.64C152.805 34.1387 152.64 33.5413 152.629 32.848H154.149C154.149 33.4987 154.368 34.0107 154.805 34.384C155.243 34.7573 155.819 34.944 156.533 34.944C157.141 34.944 157.627 34.832 157.989 34.608C158.363 34.3733 158.549 34.0587 158.549 33.664C158.549 33.3547 158.443 33.1093 158.229 32.928C158.027 32.736 157.755 32.5867 157.413 32.48C157.072 32.3733 156.693 32.2827 156.277 32.208C155.872 32.1227 155.461 32.0267 155.045 31.92C154.64 31.8027 154.267 31.6587 153.925 31.488C153.584 31.3067 153.307 31.0667 153.093 30.768C152.88 30.4693 152.773 30.08 152.773 29.6C152.773 29.0987 152.917 28.656 153.205 28.272C153.493 27.8773 153.899 27.568 154.421 27.344C154.955 27.12 155.584 27.008 156.309 27.008C157.408 27.008 158.288 27.264 158.949 27.776C159.621 28.2773 159.984 28.9707 160.037 29.856H158.517C158.485 29.344 158.272 28.9493 157.877 28.672C157.493 28.384 156.971 28.24 156.309 28.24C155.691 28.24 155.216 28.3627 154.885 28.608C154.565 28.8533 154.405 29.1627 154.405 29.536C154.405 29.824 154.512 30.0533 154.725 30.224C154.939 30.384 155.216 30.512 155.557 30.608C155.899 30.6933 156.272 30.7733 156.677 30.848C157.093 30.912 157.504 30.9973 157.909 31.104C158.325 31.2107 158.704 31.36 159.045 31.552C159.387 31.7333 159.659 31.984 159.861 32.304C160.075 32.624 160.181 33.04 160.181 33.552C160.181 34.3733 159.851 35.0187 159.189 35.488C158.528 35.9573 157.648 36.192 156.549 36.192ZM167.436 36C166.892 36 166.428 35.8933 166.044 35.68C165.66 35.456 165.372 35.1413 165.18 34.736C164.988 34.3307 164.892 33.856 164.892 33.312V25.536L166.508 24.656V33.312C166.508 33.568 166.545 33.8027 166.62 34.016C166.694 34.2293 166.838 34.3947 167.052 34.512C167.276 34.6293 167.601 34.688 168.028 34.688H170.668V36H167.436ZM162.812 28.512V27.2H169.26V28.512H162.812ZM179.522 30.976V29.92C179.522 29.4613 179.383 29.0933 179.106 28.816C178.829 28.528 178.429 28.384 177.906 28.384C177.245 28.384 176.653 28.6347 176.13 29.136C175.607 29.6267 175.191 30.3787 174.882 31.392L174.658 29.76C174.893 29.152 175.175 28.6453 175.506 28.24C175.847 27.8347 176.237 27.5307 176.674 27.328C177.122 27.1147 177.613 27.008 178.146 27.008C179.031 27.008 179.751 27.264 180.306 27.776C180.861 28.2773 181.138 28.992 181.138 29.92V30.976H179.522ZM173.57 36V27.2H175.09L175.186 29.2V36H173.57ZM189.832 36L189.768 34V30.24C189.768 29.6107 189.56 29.12 189.144 28.768C188.739 28.4053 188.179 28.224 187.464 28.224C186.771 28.224 186.205 28.384 185.768 28.704C185.331 29.0133 185.091 29.4453 185.048 30H183.464C183.517 29.3707 183.72 28.8373 184.072 28.4C184.424 27.952 184.893 27.6107 185.48 27.376C186.067 27.1307 186.744 27.008 187.512 27.008C188.301 27.008 188.984 27.1413 189.56 27.408C190.136 27.664 190.579 28.0373 190.888 28.528C191.208 29.0187 191.368 29.616 191.368 30.32V36H189.832ZM186.648 36.192C186.072 36.192 185.565 36.0907 185.128 35.888C184.691 35.6747 184.349 35.376 184.104 34.992C183.859 34.5973 183.736 34.1387 183.736 33.616C183.736 32.7093 184.083 32.0053 184.776 31.504C185.48 31.0027 186.461 30.752 187.72 30.752H189.976V31.952H187.656C186.931 31.952 186.36 32.0907 185.944 32.368C185.539 32.6453 185.336 33.0347 185.336 33.536C185.336 33.952 185.48 34.2773 185.768 34.512C186.067 34.7467 186.467 34.864 186.968 34.864C187.608 34.864 188.173 34.6933 188.664 34.352C189.165 34 189.571 33.52 189.88 32.912L190.056 34.096C189.779 34.768 189.352 35.2853 188.776 35.648C188.2 36.0107 187.491 36.192 186.648 36.192ZM198.654 36C198.11 36 197.646 35.8933 197.262 35.68C196.878 35.456 196.59 35.1413 196.398 34.736C196.206 34.3307 196.11 33.856 196.11 33.312V25.536L197.726 24.656V33.312C197.726 33.568 197.764 33.8027 197.838 34.016C197.913 34.2293 198.057 34.3947 198.27 34.512C198.494 34.6293 198.82 34.688 199.246 34.688H201.886V36H198.654ZM194.03 28.512V27.2H200.478V28.512H194.03ZM208.325 36.192C207.418 36.192 206.634 36.0053 205.973 35.632C205.322 35.2587 204.821 34.7307 204.469 34.048C204.117 33.3547 203.941 32.5387 203.941 31.6C203.941 30.64 204.117 29.824 204.469 29.152C204.821 28.4693 205.322 27.9413 205.973 27.568C206.634 27.1947 207.423 27.008 208.341 27.008C209.706 27.008 210.778 27.4187 211.557 28.24C212.335 29.0507 212.725 30.1707 212.725 31.6C212.725 32.5387 212.549 33.3547 212.197 34.048C211.845 34.7307 211.338 35.2587 210.677 35.632C210.026 36.0053 209.242 36.192 208.325 36.192ZM208.341 34.848C209.194 34.848 209.866 34.56 210.357 33.984C210.858 33.3973 211.109 32.6027 211.109 31.6C211.109 30.5867 210.858 29.792 210.357 29.216C209.866 28.64 209.194 28.352 208.341 28.352C207.477 28.352 206.799 28.64 206.309 29.216C205.818 29.792 205.573 30.5867 205.573 31.6C205.573 32.6027 205.818 33.3973 206.309 33.984C206.799 34.56 207.477 34.848 208.341 34.848ZM221.147 30.976V29.92C221.147 29.4613 221.008 29.0933 220.731 28.816C220.454 28.528 220.054 28.384 219.531 28.384C218.87 28.384 218.278 28.6347 217.755 29.136C217.232 29.6267 216.816 30.3787 216.507 31.392L216.283 29.76C216.518 29.152 216.8 28.6453 217.131 28.24C217.472 27.8347 217.862 27.5307 218.299 27.328C218.747 27.1147 219.238 27.008 219.771 27.008C220.656 27.008 221.376 27.264 221.931 27.776C222.486 28.2773 222.763 28.992 222.763 29.92V30.976H221.147ZM215.195 36V27.2H216.715L216.811 29.2V36H215.195Z" fill="#F2F2F2"/>
</svg>
