<svg width="162" height="60" viewBox="0 0 162 60" fill="none" xmlns="http://www.w3.org/2000/svg">
<path d="M34.1071 16.5H12.8929C11.2958 16.5 10 17.7958 10 19.3929V40.6071C10 42.2042 11.2958 43.5 12.8929 43.5H34.1071C35.7042 43.5 37 42.2042 37 40.6071V19.3929C37 17.7958 35.7042 16.5 34.1071 16.5ZM24.6933 37.5576C24.6933 40.1853 23.1504 41.3846 20.9025 41.3846C18.8714 41.3846 17.6962 40.3359 17.0935 39.0643L19.1607 37.8167C19.5585 38.5219 19.9201 39.1185 20.794 39.1185C21.6257 39.1185 22.156 38.7931 22.156 37.5214V28.8971H24.6933V37.5576ZM30.696 41.3846C28.3395 41.3846 26.8147 40.2636 26.0734 38.7931L28.1406 37.5998C28.683 38.4857 29.3942 39.1426 30.6417 39.1426C31.6904 39.1426 32.3654 38.6183 32.3654 37.8891C32.3654 37.0212 31.6783 36.7138 30.5152 36.2016L29.8824 35.9304C28.0502 35.1529 26.8388 34.1705 26.8388 32.1033C26.8388 30.1989 28.2913 28.7525 30.5513 28.7525C32.1665 28.7525 33.3237 29.3129 34.1554 30.7835L32.1786 32.0491C31.7446 31.2717 31.2746 30.9643 30.5453 30.9643C29.804 30.9643 29.3339 31.4344 29.3339 32.0491C29.3339 32.8085 29.804 33.1158 30.8949 33.592L31.5277 33.8632C33.6853 34.7853 34.8967 35.7315 34.8967 37.8529C34.8967 40.131 33.1007 41.3846 30.696 41.3846Z" fill="#F2F2F2"/>
<path d="M49.0848 36V34.56H53.0688C53.5808 34.56 53.9701 34.4107 54.2368 34.112C54.5034 33.8027 54.6368 33.3867 54.6368 32.864V24.832H56.3328V32.784C56.3328 33.296 56.2634 33.7547 56.1248 34.16C55.9861 34.5547 55.7781 34.8907 55.5008 35.168C55.2341 35.4347 54.8928 35.6427 54.4768 35.792C54.0714 35.9307 53.5968 36 53.0528 36H49.0848ZM50.3808 24.832H56.2048V26.272H50.3808V24.832ZM65.379 36L65.315 34V30.24C65.315 29.6107 65.107 29.12 64.691 28.768C64.2857 28.4053 63.7257 28.224 63.011 28.224C62.3177 28.224 61.7523 28.384 61.315 28.704C60.8777 29.0133 60.6377 29.4453 60.595 30H59.011C59.0643 29.3707 59.267 28.8373 59.619 28.4C59.971 27.952 60.4403 27.6107 61.027 27.376C61.6137 27.1307 62.291 27.008 63.059 27.008C63.8483 27.008 64.531 27.1413 65.107 27.408C65.683 27.664 66.1257 28.0373 66.435 28.528C66.755 29.0187 66.915 29.616 66.915 30.32V36H65.379ZM62.195 36.192C61.619 36.192 61.1123 36.0907 60.675 35.888C60.2377 35.6747 59.8963 35.376 59.651 34.992C59.4057 34.5973 59.283 34.1387 59.283 33.616C59.283 32.7093 59.6297 32.0053 60.323 31.504C61.027 31.0027 62.0083 30.752 63.267 30.752H65.523V31.952H63.203C62.4777 31.952 61.907 32.0907 61.491 32.368C61.0857 32.6453 60.883 33.0347 60.883 33.536C60.883 33.952 61.027 34.2773 61.315 34.512C61.6137 34.7467 62.0137 34.864 62.515 34.864C63.155 34.864 63.7203 34.6933 64.211 34.352C64.7123 34 65.1177 33.52 65.427 32.912L65.603 34.096C65.3257 34.768 64.899 35.2853 64.323 35.648C63.747 36.0107 63.0377 36.192 62.195 36.192ZM72.5693 36L69.1293 27.2H70.8413L72.8733 32.496L73.4973 34.512L74.1373 32.496L76.1693 27.2H77.8173L74.3933 36H72.5693ZM86.1915 36L86.1275 34V30.24C86.1275 29.6107 85.9195 29.12 85.5035 28.768C85.0982 28.4053 84.5382 28.224 83.8235 28.224C83.1302 28.224 82.5648 28.384 82.1275 28.704C81.6902 29.0133 81.4502 29.4453 81.4075 30H79.8235C79.8768 29.3707 80.0795 28.8373 80.4315 28.4C80.7835 27.952 81.2528 27.6107 81.8395 27.376C82.4262 27.1307 83.1035 27.008 83.8715 27.008C84.6608 27.008 85.3435 27.1413 85.9195 27.408C86.4955 27.664 86.9382 28.0373 87.2475 28.528C87.5675 29.0187 87.7275 29.616 87.7275 30.32V36H86.1915ZM83.0075 36.192C82.4315 36.192 81.9248 36.0907 81.4875 35.888C81.0502 35.6747 80.7088 35.376 80.4635 34.992C80.2182 34.5973 80.0955 34.1387 80.0955 33.616C80.0955 32.7093 80.4422 32.0053 81.1355 31.504C81.8395 31.0027 82.8208 30.752 84.0795 30.752H86.3355V31.952H84.0155C83.2902 31.952 82.7195 32.0907 82.3035 32.368C81.8982 32.6453 81.6955 33.0347 81.6955 33.536C81.6955 33.952 81.8395 34.2773 82.1275 34.512C82.4262 34.7467 82.8262 34.864 83.3275 34.864C83.9675 34.864 84.5328 34.6933 85.0235 34.352C85.5248 34 85.9302 33.52 86.2395 32.912L86.4155 34.096C86.1382 34.768 85.7115 35.2853 85.1355 35.648C84.5595 36.0107 83.8502 36.192 83.0075 36.192ZM94.4538 36.192C93.5898 36.192 92.8378 36.0267 92.1978 35.696C91.5578 35.3653 91.0618 34.8907 90.7098 34.272C90.3578 33.6533 90.1818 32.9013 90.1818 32.016H91.8618C91.8618 32.8907 92.0911 33.568 92.5498 34.048C93.0084 34.5173 93.6378 34.752 94.4378 34.752C95.1204 34.752 95.6698 34.5973 96.0858 34.288C96.5018 33.968 96.7098 33.5253 96.7098 32.96C96.7098 32.576 96.5924 32.2667 96.3578 32.032C96.1338 31.7973 95.8298 31.6053 95.4458 31.456C95.0724 31.3067 94.6618 31.1733 94.2138 31.056C93.7658 30.9387 93.3124 30.8107 92.8538 30.672C92.4058 30.5227 91.9898 30.336 91.6058 30.112C91.2324 29.888 90.9284 29.5893 90.6938 29.216C90.4698 28.8427 90.3578 28.368 90.3578 27.792C90.3578 27.184 90.5178 26.6453 90.8378 26.176C91.1684 25.696 91.6218 25.3227 92.1978 25.056C92.7844 24.7787 93.4724 24.64 94.2618 24.64C95.0298 24.64 95.7178 24.784 96.3258 25.072C96.9338 25.3493 97.4191 25.7493 97.7818 26.272C98.1551 26.784 98.3471 27.4027 98.3578 28.128H96.6618C96.6511 27.7013 96.5338 27.3387 96.3098 27.04C96.0964 26.7307 95.8084 26.496 95.4458 26.336C95.0938 26.1653 94.6991 26.08 94.2618 26.08C93.6324 26.08 93.1204 26.2293 92.7258 26.528C92.3311 26.8267 92.1338 27.232 92.1338 27.744C92.1338 28.1067 92.2458 28.3947 92.4698 28.608C92.7044 28.8213 93.0084 28.9973 93.3818 29.136C93.7658 29.264 94.1818 29.3867 94.6298 29.504C95.0884 29.6107 95.5418 29.7387 95.9898 29.888C96.4378 30.0267 96.8484 30.2187 97.2218 30.464C97.6058 30.6987 97.9098 31.0187 98.1337 31.424C98.3684 31.8187 98.4858 32.3253 98.4858 32.944C98.4858 33.6053 98.3098 34.1813 97.9578 34.672C97.6058 35.152 97.1258 35.5253 96.5178 35.792C95.9098 36.0587 95.2218 36.192 94.4538 36.192ZM104.956 36.192C104.049 36.192 103.26 36.0053 102.588 35.632C101.927 35.248 101.415 34.7147 101.052 34.032C100.689 33.3387 100.508 32.528 100.508 31.6C100.508 30.6507 100.695 29.8347 101.068 29.152C101.441 28.4587 101.964 27.9307 102.636 27.568C103.308 27.1947 104.092 27.008 104.988 27.008C105.703 27.008 106.343 27.1413 106.908 27.408C107.484 27.664 107.948 28.032 108.3 28.512C108.663 28.992 108.871 29.5627 108.924 30.224H107.308C107.223 29.6267 106.967 29.168 106.54 28.848C106.124 28.5173 105.607 28.352 104.988 28.352C104.412 28.352 103.911 28.4853 103.484 28.752C103.057 29.008 102.727 29.376 102.492 29.856C102.257 30.336 102.14 30.9173 102.14 31.6C102.14 32.6133 102.396 33.408 102.908 33.984C103.431 34.56 104.113 34.848 104.956 34.848C105.34 34.848 105.697 34.7733 106.028 34.624C106.359 34.4747 106.641 34.2613 106.876 33.984C107.111 33.696 107.271 33.3653 107.356 32.992H108.988C108.881 33.6533 108.636 34.224 108.252 34.704C107.879 35.1733 107.404 35.5413 106.828 35.808C106.263 36.064 105.639 36.192 104.956 36.192ZM117.506 30.976V29.92C117.506 29.4613 117.368 29.0933 117.09 28.816C116.813 28.528 116.413 28.384 115.89 28.384C115.229 28.384 114.637 28.6347 114.114 29.136C113.592 29.6267 113.176 30.3787 112.866 31.392L112.642 29.76C112.877 29.152 113.16 28.6453 113.49 28.24C113.832 27.8347 114.221 27.5307 114.658 27.328C115.106 27.1147 115.597 27.008 116.13 27.008C117.016 27.008 117.736 27.264 118.29 27.776C118.845 28.2773 119.122 28.992 119.122 29.92V30.976H117.506ZM111.554 36V27.2H113.074L113.17 29.2V36H111.554ZM124.793 36V27.2H126.409V36H124.793ZM121.545 36V34.688H129.433V36H121.545ZM122.713 28.512V27.2H125.593V28.512H122.713ZM124.681 25.696V23.952H126.489V25.696H124.681ZM136.431 27.008C137.22 27.008 137.908 27.2053 138.495 27.6C139.092 27.984 139.561 28.5227 139.903 29.216C140.244 29.9093 140.415 30.704 140.415 31.6C140.415 32.4853 140.244 33.2747 139.903 33.968C139.561 34.6613 139.092 35.2053 138.495 35.6C137.908 35.9947 137.22 36.192 136.431 36.192C135.833 36.192 135.284 36.0693 134.783 35.824C134.292 35.5787 133.887 35.2427 133.567 34.816V38.848H131.951V27.2H133.487L133.535 28.4C133.855 27.9733 134.265 27.6373 134.767 27.392C135.268 27.136 135.823 27.008 136.431 27.008ZM136.079 34.832C136.623 34.832 137.097 34.6933 137.503 34.416C137.908 34.1387 138.223 33.76 138.447 33.28C138.671 32.7893 138.783 32.2293 138.783 31.6C138.783 30.96 138.671 30.4 138.447 29.92C138.223 29.4293 137.908 29.0507 137.503 28.784C137.097 28.5067 136.623 28.368 136.079 28.368C135.524 28.368 135.017 28.528 134.559 28.848C134.111 29.1573 133.78 29.584 133.567 30.128V33.04C133.78 33.5947 134.111 34.032 134.559 34.352C135.017 34.672 135.524 34.832 136.079 34.832ZM147.045 36C146.501 36 146.037 35.8933 145.653 35.68C145.269 35.456 144.981 35.1413 144.789 34.736C144.597 34.3307 144.501 33.856 144.501 33.312V25.536L146.117 24.656V33.312C146.117 33.568 146.154 33.8027 146.229 34.016C146.304 34.2293 146.448 34.3947 146.661 34.512C146.885 34.6293 147.21 34.688 147.637 34.688H150.277V36H147.045ZM142.421 28.512V27.2H148.869V28.512H142.421Z" fill="#F2F2F2"/>
</svg>
