<svg width="16" height="16" viewBox="0 0 16 16" fill="none" xmlns="http://www.w3.org/2000/svg">
<path d="M11.7656 0L10.6344 1.14807L12.4688 3.00971H12C7.14927 3.00971 3.2 7.0177 3.2 11.9405V12.7524H4.8V11.9405C4.8 7.8952 8.01393 4.6335 12 4.6335H12.4688L10.6344 6.49514L11.7656 7.64321L15.5312 3.82161L11.7656 0ZM0 4.6335V5.44539V13.5643C0 14.8999 1.08402 16 2.4 16H13.6C14.916 16 16 14.8999 16 13.5643V12.7524V11.9405H14.4V12.7524V13.5643C14.4 14.0231 14.052 14.3762 13.6 14.3762H2.4C1.94798 14.3762 1.6 14.0231 1.6 13.5643V5.44539V4.6335H0Z" fill="#0C1726"/>
</svg>
