<svg width="214" height="60" viewBox="0 0 214 60" fill="none" xmlns="http://www.w3.org/2000/svg">
<path d="M13 16.5C11.35 16.5 10 17.85 10 19.5V40.5C10 42.15 11.35 43.5 13 43.5H34C35.65 43.5 37 42.15 37 40.5V19.5C37 17.85 35.65 16.5 34 16.5H13ZM15.8359 24H19.8848C23.3738 24 23.79 27.2107 23.79 27.9082C23.7885 30.6982 21.8375 31.6729 20.0225 31.6729H18.3467V35.8594H15.8359V24ZM18.3467 25.9541V29.7217H20.0225C21.1385 29.7217 21.417 28.8847 21.417 27.9082C21.4185 26.9302 21.0005 25.9541 20.0225 25.9541H18.3467ZM28.2549 26.9297C30.3474 26.9297 31.4629 28.1872 31.4629 29.7217H29.0928C29.0928 29.0242 28.8129 28.6055 28.2549 28.6055C27.8364 28.6055 27.417 28.8854 27.417 29.4434C27.417 30.8384 31.4658 30.4188 31.4658 33.4893C31.4643 35.5818 29.3709 36 28.2549 36C26.0229 36 24.9062 34.4653 24.9062 33.0703H27.1387C27.1387 34.1863 27.9759 34.3271 28.2549 34.3271C28.8129 34.3271 29.2305 34.0473 29.2305 33.4893C29.2305 32.2338 25.1816 32.3726 25.1816 29.5811C25.1816 27.4886 27.1374 26.9297 28.2549 26.9297Z" fill="#F2F2F2"/>
<path d="M49.6451 33.184V31.744H55.8371V33.184H49.6451ZM51.4371 24.832H53.8691L57.3251 36H55.5811L53.3251 28.608L52.6531 26.16L51.9811 28.624L49.6931 36H47.9811L51.4371 24.832ZM62.5954 27.008C63.2034 27.008 63.758 27.1307 64.2594 27.376C64.7607 27.6107 65.166 27.9413 65.4754 28.368V24.24H67.0754V36H65.5554L65.5074 34.768C65.198 35.1947 64.7874 35.5413 64.2754 35.808C63.774 36.064 63.214 36.192 62.5954 36.192C61.8167 36.192 61.1287 35.9947 60.5314 35.6C59.934 35.2053 59.4647 34.6613 59.1234 33.968C58.7927 33.2747 58.6274 32.4853 58.6274 31.6C58.6274 30.704 58.7927 29.9093 59.1234 29.216C59.4647 28.5227 59.934 27.984 60.5314 27.6C61.1287 27.2053 61.8167 27.008 62.5954 27.008ZM62.9474 34.832C63.5234 34.832 64.0354 34.672 64.4834 34.352C64.9314 34.0213 65.262 33.5787 65.4754 33.024V30.16C65.262 29.5947 64.9314 29.1573 64.4834 28.848C64.0354 28.528 63.5234 28.368 62.9474 28.368C62.414 28.368 61.9447 28.5067 61.5394 28.784C61.134 29.0507 60.814 29.4293 60.5794 29.92C60.3554 30.4 60.2434 30.96 60.2434 31.6C60.2434 32.2293 60.3554 32.7893 60.5794 33.28C60.814 33.76 61.134 34.1387 61.5394 34.416C61.9447 34.6933 62.414 34.832 62.9474 34.832ZM73.4496 36.192C72.543 36.192 71.759 36.0053 71.0976 35.632C70.447 35.2587 69.9456 34.7307 69.5936 34.048C69.2416 33.3547 69.0656 32.5387 69.0656 31.6C69.0656 30.64 69.2416 29.824 69.5936 29.152C69.9456 28.4693 70.447 27.9413 71.0976 27.568C71.759 27.1947 72.5483 27.008 73.4656 27.008C74.831 27.008 75.903 27.4187 76.6816 28.24C77.4603 29.0507 77.8496 30.1707 77.8496 31.6C77.8496 32.5387 77.6736 33.3547 77.3216 34.048C76.9696 34.7307 76.463 35.2587 75.8016 35.632C75.151 36.0053 74.367 36.192 73.4496 36.192ZM73.4656 34.848C74.319 34.848 74.991 34.56 75.4816 33.984C75.983 33.3973 76.2336 32.6027 76.2336 31.6C76.2336 30.5867 75.983 29.792 75.4816 29.216C74.991 28.64 74.319 28.352 73.4656 28.352C72.6016 28.352 71.9243 28.64 71.4336 29.216C70.943 29.792 70.6976 30.5867 70.6976 31.6C70.6976 32.6027 70.943 33.3973 71.4336 33.984C71.9243 34.56 72.6016 34.848 73.4656 34.848ZM84.3999 27.008C85.1892 27.008 85.8772 27.2053 86.4639 27.6C87.0612 27.984 87.5305 28.5227 87.8719 29.216C88.2132 29.9093 88.3839 30.704 88.3839 31.6C88.3839 32.4853 88.2132 33.2747 87.8719 33.968C87.5305 34.6613 87.0612 35.2053 86.4639 35.6C85.8772 35.9947 85.1892 36.192 84.3999 36.192C83.7919 36.192 83.2319 36.064 82.7199 35.808C82.2185 35.5413 81.8132 35.1947 81.5039 34.768L81.4559 36H79.9199V24.24H81.5359V28.368C81.8452 27.9413 82.2505 27.6107 82.7519 27.376C83.2532 27.1307 83.8025 27.008 84.3999 27.008ZM84.0479 34.832C84.5919 34.832 85.0665 34.6933 85.4719 34.416C85.8772 34.1387 86.1919 33.76 86.4159 33.28C86.6399 32.7893 86.7519 32.2293 86.7519 31.6C86.7519 30.96 86.6399 30.4 86.4159 29.92C86.1919 29.4293 85.8772 29.0507 85.4719 28.784C85.0665 28.5067 84.5919 28.368 84.0479 28.368C83.4825 28.368 82.9759 28.528 82.5279 28.848C82.0799 29.1573 81.7492 29.5947 81.5359 30.16V33.024C81.7492 33.5787 82.0799 34.0213 82.5279 34.352C82.9759 34.672 83.4825 34.832 84.0479 34.832ZM94.3741 36.192C93.4675 36.192 92.6835 36.0107 92.0221 35.648C91.3608 35.2747 90.8541 34.7467 90.5021 34.064C90.1501 33.3707 89.9741 32.544 89.9741 31.584C89.9741 30.624 90.1501 29.8027 90.5021 29.12C90.8648 28.4373 91.3768 27.9147 92.0381 27.552C92.7101 27.1893 93.5101 27.008 94.4381 27.008C95.8568 27.008 96.9128 27.4027 97.6061 28.192C98.2995 28.9707 98.6035 30.0427 98.5181 31.408H91.2541L91.2701 30.192L96.8701 30.208C96.8275 29.6427 96.5821 29.1893 96.1341 28.848C95.6861 28.5067 95.1208 28.336 94.4381 28.336C93.5208 28.336 92.8168 28.624 92.3261 29.2C91.8355 29.776 91.5901 30.592 91.5901 31.648C91.5901 32.2773 91.6968 32.8373 91.9101 33.328C92.1341 33.808 92.4541 34.1813 92.8701 34.448C93.2861 34.7147 93.7875 34.848 94.3741 34.848C95.0675 34.848 95.6435 34.6827 96.1021 34.352C96.5715 34.0213 96.8595 33.5733 96.9661 33.008H98.5821C98.4435 34 98.0008 34.7787 97.2541 35.344C96.5075 35.9093 95.5475 36.192 94.3741 36.192ZM112.403 31.92V30.48H115.315C116.029 30.48 116.605 30.2827 117.043 29.888C117.48 29.4933 117.699 28.976 117.699 28.336C117.699 27.7173 117.496 27.2213 117.091 26.848C116.685 26.464 116.147 26.272 115.475 26.272H112.403V24.832H115.475C116.285 24.832 116.989 24.976 117.587 25.264C118.184 25.552 118.648 25.9573 118.979 26.48C119.309 27.0027 119.475 27.6213 119.475 28.336C119.475 29.0507 119.304 29.68 118.963 30.224C118.621 30.7573 118.136 31.1733 117.507 31.472C116.888 31.7707 116.163 31.92 115.331 31.92H112.403ZM111.187 36V24.832H112.883V36H111.187ZM127.865 36V30.464C127.865 29.8347 127.689 29.3333 127.337 28.96C126.985 28.576 126.526 28.384 125.961 28.384C125.31 28.384 124.729 28.624 124.217 29.104C123.716 29.5733 123.316 30.3093 123.017 31.312L122.761 29.52C123.092 28.6773 123.566 28.048 124.185 27.632C124.814 27.216 125.497 27.008 126.233 27.008C126.894 27.008 127.465 27.152 127.945 27.44C128.436 27.7173 128.814 28.112 129.081 28.624C129.348 29.1253 129.481 29.7173 129.481 30.4V36H127.865ZM121.593 36V24.224H123.209V36H121.593ZM135.887 36.192C134.98 36.192 134.196 36.0053 133.535 35.632C132.884 35.2587 132.383 34.7307 132.031 34.048C131.679 33.3547 131.503 32.5387 131.503 31.6C131.503 30.64 131.679 29.824 132.031 29.152C132.383 28.4693 132.884 27.9413 133.535 27.568C134.196 27.1947 134.986 27.008 135.903 27.008C137.268 27.008 138.34 27.4187 139.119 28.24C139.898 29.0507 140.287 30.1707 140.287 31.6C140.287 32.5387 140.111 33.3547 139.759 34.048C139.407 34.7307 138.9 35.2587 138.239 35.632C137.588 36.0053 136.804 36.192 135.887 36.192ZM135.903 34.848C136.756 34.848 137.428 34.56 137.919 33.984C138.42 33.3973 138.671 32.6027 138.671 31.6C138.671 30.5867 138.42 29.792 137.919 29.216C137.428 28.64 136.756 28.352 135.903 28.352C135.039 28.352 134.362 28.64 133.871 29.216C133.38 29.792 133.135 30.5867 133.135 31.6C133.135 32.6027 133.38 33.3973 133.871 33.984C134.362 34.56 135.039 34.848 135.903 34.848ZM147.029 36C146.485 36 146.021 35.8933 145.637 35.68C145.253 35.456 144.965 35.1413 144.773 34.736C144.581 34.3307 144.485 33.856 144.485 33.312V25.536L146.101 24.656V33.312C146.101 33.568 146.139 33.8027 146.213 34.016C146.288 34.2293 146.432 34.3947 146.645 34.512C146.869 34.6293 147.195 34.688 147.621 34.688H150.261V36H147.029ZM142.405 28.512V27.2H148.853V28.512H142.405ZM156.7 36.192C155.793 36.192 155.009 36.0053 154.348 35.632C153.697 35.2587 153.196 34.7307 152.844 34.048C152.492 33.3547 152.316 32.5387 152.316 31.6C152.316 30.64 152.492 29.824 152.844 29.152C153.196 28.4693 153.697 27.9413 154.348 27.568C155.009 27.1947 155.798 27.008 156.716 27.008C158.081 27.008 159.153 27.4187 159.932 28.24C160.71 29.0507 161.1 30.1707 161.1 31.6C161.1 32.5387 160.924 33.3547 160.572 34.048C160.22 34.7307 159.713 35.2587 159.052 35.632C158.401 36.0053 157.617 36.192 156.7 36.192ZM156.716 34.848C157.569 34.848 158.241 34.56 158.732 33.984C159.233 33.3973 159.484 32.6027 159.484 31.6C159.484 30.5867 159.233 29.792 158.732 29.216C158.241 28.64 157.569 28.352 156.716 28.352C155.852 28.352 155.174 28.64 154.684 29.216C154.193 29.792 153.948 30.5867 153.948 31.6C153.948 32.6027 154.193 33.3973 154.684 33.984C155.174 34.56 155.852 34.848 156.716 34.848ZM167.362 36.192C166.583 36.192 165.895 36.0587 165.298 35.792C164.711 35.5147 164.258 35.1307 163.938 34.64C163.618 34.1387 163.453 33.5413 163.442 32.848H164.962C164.962 33.4987 165.181 34.0107 165.618 34.384C166.055 34.7573 166.631 34.944 167.346 34.944C167.954 34.944 168.439 34.832 168.802 34.608C169.175 34.3733 169.362 34.0587 169.362 33.664C169.362 33.3547 169.255 33.1093 169.042 32.928C168.839 32.736 168.567 32.5867 168.226 32.48C167.885 32.3733 167.506 32.2827 167.09 32.208C166.685 32.1227 166.274 32.0267 165.858 31.92C165.453 31.8027 165.079 31.6587 164.738 31.488C164.397 31.3067 164.119 31.0667 163.906 30.768C163.693 30.4693 163.586 30.08 163.586 29.6C163.586 29.0987 163.73 28.656 164.018 28.272C164.306 27.8773 164.711 27.568 165.234 27.344C165.767 27.12 166.397 27.008 167.122 27.008C168.221 27.008 169.101 27.264 169.762 27.776C170.434 28.2773 170.797 28.9707 170.85 29.856H169.33C169.298 29.344 169.085 28.9493 168.69 28.672C168.306 28.384 167.783 28.24 167.122 28.24C166.503 28.24 166.029 28.3627 165.698 28.608C165.378 28.8533 165.218 29.1627 165.218 29.536C165.218 29.824 165.325 30.0533 165.538 30.224C165.751 30.384 166.029 30.512 166.37 30.608C166.711 30.6933 167.085 30.7733 167.49 30.848C167.906 30.912 168.317 30.9973 168.722 31.104C169.138 31.2107 169.517 31.36 169.858 31.552C170.199 31.7333 170.471 31.984 170.674 32.304C170.887 32.624 170.994 33.04 170.994 33.552C170.994 34.3733 170.663 35.0187 170.002 35.488C169.341 35.9573 168.461 36.192 167.362 36.192ZM179.896 36V30.464C179.896 29.8347 179.72 29.3333 179.368 28.96C179.016 28.576 178.557 28.384 177.992 28.384C177.341 28.384 176.76 28.624 176.248 29.104C175.747 29.5733 175.347 30.3093 175.048 31.312L174.792 29.52C175.123 28.6773 175.597 28.048 176.216 27.632C176.845 27.216 177.528 27.008 178.264 27.008C178.925 27.008 179.496 27.152 179.976 27.44C180.467 27.7173 180.845 28.112 181.112 28.624C181.379 29.1253 181.512 29.7173 181.512 30.4V36H179.896ZM173.624 36V24.224H175.24V36H173.624ZM187.918 36.192C187.012 36.192 186.228 36.0053 185.566 35.632C184.916 35.2587 184.414 34.7307 184.062 34.048C183.71 33.3547 183.534 32.5387 183.534 31.6C183.534 30.64 183.71 29.824 184.062 29.152C184.414 28.4693 184.916 27.9413 185.566 27.568C186.228 27.1947 187.017 27.008 187.934 27.008C189.3 27.008 190.372 27.4187 191.15 28.24C191.929 29.0507 192.318 30.1707 192.318 31.6C192.318 32.5387 192.142 33.3547 191.79 34.048C191.438 34.7307 190.932 35.2587 190.27 35.632C189.62 36.0053 188.836 36.192 187.918 36.192ZM187.934 34.848C188.788 34.848 189.46 34.56 189.95 33.984C190.452 33.3973 190.702 32.6027 190.702 31.6C190.702 30.5867 190.452 29.792 189.95 29.216C189.46 28.64 188.788 28.352 187.934 28.352C187.07 28.352 186.393 28.64 185.902 29.216C185.412 29.792 185.166 30.5867 185.166 31.6C185.166 32.6027 185.412 33.3973 185.902 33.984C186.393 34.56 187.07 34.848 187.934 34.848ZM198.853 27.008C199.642 27.008 200.33 27.2053 200.917 27.6C201.514 27.984 201.983 28.5227 202.325 29.216C202.666 29.9093 202.837 30.704 202.837 31.6C202.837 32.4853 202.666 33.2747 202.325 33.968C201.983 34.6613 201.514 35.2053 200.917 35.6C200.33 35.9947 199.642 36.192 198.853 36.192C198.255 36.192 197.706 36.0693 197.205 35.824C196.714 35.5787 196.309 35.2427 195.989 34.816V38.848H194.373V27.2H195.909L195.957 28.4C196.277 27.9733 196.687 27.6373 197.189 27.392C197.69 27.136 198.245 27.008 198.853 27.008ZM198.501 34.832C199.045 34.832 199.519 34.6933 199.925 34.416C200.33 34.1387 200.645 33.76 200.869 33.28C201.093 32.7893 201.205 32.2293 201.205 31.6C201.205 30.96 201.093 30.4 200.869 29.92C200.645 29.4293 200.33 29.0507 199.925 28.784C199.519 28.5067 199.045 28.368 198.501 28.368C197.946 28.368 197.439 28.528 196.981 28.848C196.533 29.1573 196.202 29.584 195.989 30.128V33.04C196.202 33.5947 196.533 34.032 196.981 34.352C197.439 34.672 197.946 34.832 198.501 34.832Z" fill="#F2F2F2"/>
</svg>
