<svg width="145" height="60" viewBox="0 0 145 60" fill="none" xmlns="http://www.w3.org/2000/svg">
<path d="M35.3207 25.2497C34.9938 25.1412 34.6668 25.0387 34.3398 24.9423C34.3943 24.7193 34.4428 24.4964 34.4912 24.2734C35.2359 20.6816 34.7455 17.7949 33.0926 16.8428C31.5002 15.9328 28.9027 16.8789 26.275 19.1569C26.0146 19.3799 25.7604 19.6149 25.5182 19.85C25.3547 19.6933 25.1852 19.5366 25.0156 19.3859C22.2607 16.9512 19.4998 15.9267 17.8469 16.8849C16.2605 17.801 15.7883 20.5189 16.4543 23.9178C16.5209 24.2553 16.5936 24.5868 16.6783 24.9242C16.2908 25.0327 15.9094 25.1532 15.5521 25.2798C12.3189 26.3947 10 28.1544 10 29.9744C10 31.8547 12.4703 33.741 15.8307 34.886C16.1031 34.9764 16.3756 35.0668 16.6541 35.1451C16.5633 35.5067 16.4846 35.8623 16.4119 36.2299C15.7762 39.5746 16.2727 42.2262 17.859 43.1362C19.4938 44.0763 22.2426 43.1121 24.9187 40.7799C25.1307 40.593 25.3426 40.4002 25.5545 40.1953C25.8209 40.4544 26.0994 40.7015 26.3779 40.9426C28.9693 43.1603 31.5305 44.0583 33.1107 43.1483C34.7455 42.2081 35.2783 39.3576 34.5881 35.8864C34.5336 35.6212 34.473 35.35 34.4064 35.0728C34.6002 35.0186 34.7879 34.9583 34.9756 34.898C38.4691 33.747 41 31.8848 41 29.9744C41 28.1484 38.6145 26.3766 35.3207 25.2497ZM27.1287 20.1332C29.3811 18.1806 31.482 17.4153 32.4387 17.9637C33.4619 18.5482 33.8555 20.9106 33.2137 24.0142C33.1713 24.2191 33.1289 24.418 33.0744 24.6169C31.7303 24.3156 30.368 24.0986 28.9996 23.9781C28.2125 22.8572 27.3527 21.7845 26.4203 20.778C26.6564 20.5551 26.8865 20.3441 27.1287 20.1332ZM20.1234 33.1022C20.4322 33.6265 20.7471 34.1508 21.0801 34.663C20.1355 34.5606 19.1971 34.4099 18.2707 34.211C18.5371 33.3432 18.8701 32.4453 19.2576 31.5292C19.5361 32.0596 19.8207 32.5839 20.1234 33.1022ZM18.2889 25.8523C19.1607 25.6595 20.0871 25.5028 21.0498 25.3823C20.7289 25.8825 20.4141 26.3947 20.1174 26.913C19.8207 27.4252 19.5301 27.9495 19.2576 28.4799C18.8762 27.5819 18.5553 26.702 18.2889 25.8523ZM19.9479 30.0046C20.3475 29.1729 20.7834 28.3593 21.2436 27.5578C21.7037 26.7563 22.2002 25.9789 22.7209 25.2135C23.6291 25.1472 24.5555 25.1111 25.5 25.1111C26.4445 25.1111 27.377 25.1472 28.2791 25.2135C28.7937 25.9728 29.2842 26.7503 29.7504 27.5458C30.2166 28.3412 30.6525 29.1548 31.0643 29.9804C30.6586 30.8121 30.2227 31.6317 29.7564 32.4392C29.2963 33.2408 28.8059 34.0182 28.2912 34.7896C27.3891 34.8559 26.4506 34.886 25.5 34.886C24.5494 34.886 23.6291 34.8559 22.7391 34.8016C22.2123 34.0363 21.7158 33.2528 21.2496 32.4513C20.7834 31.6498 20.3535 30.8362 19.9479 30.0046ZM30.8826 33.0901C31.1914 32.5598 31.482 32.0234 31.7666 31.481C32.1541 32.3549 32.4932 33.2408 32.7898 34.1508C31.8514 34.3617 30.9008 34.5244 29.9441 34.6329C30.2711 34.1267 30.5799 33.6084 30.8826 33.0901ZM31.7545 28.4799C31.4699 27.9495 31.1793 27.4192 30.8766 26.9009C30.5799 26.3887 30.2711 25.8825 29.9502 25.3823C30.925 25.5028 31.8574 25.6655 32.7293 25.8644C32.4508 26.7563 32.1238 27.6241 31.7545 28.4799ZM25.5121 21.7001C26.1479 22.3871 26.7473 23.1103 27.3043 23.8576C26.1055 23.8033 24.9006 23.8033 23.7018 23.8576C24.2951 23.0801 24.9066 22.357 25.5121 21.7001ZM18.4887 18.0059C19.5059 17.4153 21.7643 18.259 24.1438 20.3562C24.2951 20.4888 24.4465 20.6334 24.6039 20.778C23.6654 21.7845 22.7996 22.8572 22.0064 23.9781C20.6381 24.0986 19.2818 24.3095 17.9377 24.6048C17.859 24.2975 17.7924 23.9841 17.7258 23.6707C17.1566 20.7539 17.532 18.5543 18.4887 18.0059ZM17.0053 33.8916C16.751 33.8193 16.5027 33.741 16.2545 33.6566C14.9648 33.2528 13.4996 32.614 12.44 31.7763C11.8285 31.3545 11.4168 30.7036 11.3018 29.9744C11.3018 28.8716 13.215 27.4614 15.976 26.5032C16.3211 26.3826 16.6723 26.2742 17.0234 26.1717C17.4352 27.4795 17.9316 28.7631 18.5068 30.0046C17.9256 31.2641 17.423 32.5658 17.0053 33.8916ZM24.065 39.7976C23.066 40.7076 21.9096 41.4307 20.6502 41.9249C19.9781 42.2443 19.2031 42.2744 18.5129 42.0032C17.5502 41.4488 17.1506 39.3215 17.6955 36.4589C17.7621 36.1214 17.8348 35.7839 17.9195 35.4525C19.2758 35.7417 20.6441 35.9406 22.0307 36.0431C22.8299 37.17 23.7078 38.2488 24.6463 39.2612C24.4525 39.448 24.2588 39.6288 24.065 39.7976ZM25.5484 38.3331C24.9309 37.6702 24.3133 36.935 23.7139 36.1455C24.2951 36.1696 24.8945 36.1817 25.5 36.1817C26.1236 36.1817 26.7352 36.1696 27.3406 36.1395C26.7836 36.9049 26.1842 37.6341 25.5484 38.3331ZM33.4619 40.1411C33.4074 40.8763 33.0441 41.5633 32.4629 42.0273C31.5002 42.5818 29.4477 41.8586 27.2316 39.9663C26.9773 39.7493 26.723 39.5143 26.4627 39.2733C27.3891 38.2548 28.2428 37.176 29.0178 36.0431C30.4043 35.9286 31.7848 35.7176 33.1471 35.4103C33.2076 35.6574 33.2621 35.9045 33.3105 36.1455C33.6072 37.4472 33.6557 38.8032 33.4619 40.1411ZM34.5639 33.6626C34.3943 33.7169 34.2248 33.7711 34.0492 33.8193C33.6254 32.5055 33.1047 31.2219 32.5053 29.9744C33.0865 28.745 33.577 27.4795 33.9887 26.1838C34.3035 26.2742 34.6063 26.3706 34.8969 26.467C37.7184 27.4313 39.6982 28.8656 39.6982 29.9624C39.6982 31.1436 37.5852 32.6682 34.5639 33.6626ZM25.5 32.7586C27.0318 32.7586 28.273 31.5232 28.273 29.9985C28.273 28.4738 27.0318 27.2384 25.5 27.2384C23.9682 27.2384 22.727 28.4738 22.727 29.9985C22.727 31.5232 23.9682 32.7586 25.5 32.7586Z" fill="#F2F2F2"/>
<path d="M53.951 31.328V29.888H56.783C57.2523 29.888 57.663 29.8133 58.015 29.664C58.3777 29.504 58.6603 29.28 58.863 28.992C59.0763 28.704 59.183 28.3733 59.183 28C59.183 27.6373 59.0923 27.328 58.911 27.072C58.7297 26.816 58.4843 26.6187 58.175 26.48C57.8657 26.3413 57.519 26.272 57.135 26.272H53.951V24.832H57.135C57.871 24.832 58.527 24.96 59.103 25.216C59.679 25.4613 60.1323 25.8187 60.463 26.288C60.7937 26.7573 60.959 27.328 60.959 28C60.959 28.4267 60.8577 28.8373 60.655 29.232C60.463 29.6267 60.1803 29.984 59.807 30.304C59.4443 30.6133 59.0017 30.864 58.479 31.056C57.9563 31.2373 57.3643 31.328 56.703 31.328H53.951ZM52.735 36V24.832H54.431V36H52.735ZM59.151 36C59.087 35.4987 58.9483 35.0027 58.735 34.512C58.5323 34.0213 58.255 33.552 57.903 33.104C57.551 32.656 57.1137 32.24 56.591 31.856C56.079 31.472 55.4817 31.1253 54.799 30.816L56.687 30.4C57.391 30.752 57.9937 31.1467 58.495 31.584C59.007 32.0107 59.4283 32.464 59.759 32.944C60.1003 33.424 60.3563 33.92 60.527 34.432C60.7083 34.944 60.8257 35.4667 60.879 36H59.151ZM67.0773 36.192C66.1706 36.192 65.3866 36.0107 64.7253 35.648C64.0639 35.2747 63.5573 34.7467 63.2053 34.064C62.8533 33.3707 62.6773 32.544 62.6773 31.584C62.6773 30.624 62.8533 29.8027 63.2053 29.12C63.5679 28.4373 64.0799 27.9147 64.7413 27.552C65.4133 27.1893 66.2133 27.008 67.1413 27.008C68.5599 27.008 69.6159 27.4027 70.3093 28.192C71.0026 28.9707 71.3066 30.0427 71.2213 31.408H63.9573L63.9733 30.192L69.5733 30.208C69.5306 29.6427 69.2853 29.1893 68.8373 28.848C68.3893 28.5067 67.8239 28.336 67.1413 28.336C66.2239 28.336 65.5199 28.624 65.0293 29.2C64.5386 29.776 64.2933 30.592 64.2933 31.648C64.2933 32.2773 64.3999 32.8373 64.6133 33.328C64.8373 33.808 65.1573 34.1813 65.5733 34.448C65.9893 34.7147 66.4906 34.848 67.0773 34.848C67.7706 34.848 68.3466 34.6827 68.8053 34.352C69.2746 34.0213 69.5626 33.5733 69.6693 33.008H71.2853C71.1466 34 70.7039 34.7787 69.9573 35.344C69.2106 35.9093 68.2506 36.192 67.0773 36.192ZM79.6915 36L79.6275 34V30.24C79.6275 29.6107 79.4195 29.12 79.0035 28.768C78.5982 28.4053 78.0382 28.224 77.3235 28.224C76.6302 28.224 76.0648 28.384 75.6275 28.704C75.1902 29.0133 74.9502 29.4453 74.9075 30H73.3235C73.3768 29.3707 73.5795 28.8373 73.9315 28.4C74.2835 27.952 74.7528 27.6107 75.3395 27.376C75.9262 27.1307 76.6035 27.008 77.3715 27.008C78.1608 27.008 78.8435 27.1413 79.4195 27.408C79.9955 27.664 80.4382 28.0373 80.7475 28.528C81.0675 29.0187 81.2275 29.616 81.2275 30.32V36H79.6915ZM76.5075 36.192C75.9315 36.192 75.4248 36.0907 74.9875 35.888C74.5502 35.6747 74.2088 35.376 73.9635 34.992C73.7182 34.5973 73.5955 34.1387 73.5955 33.616C73.5955 32.7093 73.9422 32.0053 74.6355 31.504C75.3395 31.0027 76.3208 30.752 77.5795 30.752H79.8355V31.952H77.5155C76.7902 31.952 76.2195 32.0907 75.8035 32.368C75.3982 32.6453 75.1955 33.0347 75.1955 33.536C75.1955 33.952 75.3395 34.2773 75.6275 34.512C75.9262 34.7467 76.3262 34.864 76.8275 34.864C77.4675 34.864 78.0328 34.6933 78.5235 34.352C79.0248 34 79.4302 33.52 79.7395 32.912L79.9155 34.096C79.6382 34.768 79.2115 35.2853 78.6355 35.648C78.0595 36.0107 77.3502 36.192 76.5075 36.192ZM88.0498 36.192C87.1431 36.192 86.3538 36.0053 85.6818 35.632C85.0204 35.248 84.5084 34.7147 84.1458 34.032C83.7831 33.3387 83.6018 32.528 83.6018 31.6C83.6018 30.6507 83.7884 29.8347 84.1618 29.152C84.5351 28.4587 85.0578 27.9307 85.7298 27.568C86.4018 27.1947 87.1858 27.008 88.0818 27.008C88.7964 27.008 89.4364 27.1413 90.0018 27.408C90.5778 27.664 91.0418 28.032 91.3938 28.512C91.7564 28.992 91.9644 29.5627 92.0178 30.224H90.4018C90.3164 29.6267 90.0604 29.168 89.6338 28.848C89.2178 28.5173 88.7004 28.352 88.0818 28.352C87.5058 28.352 87.0044 28.4853 86.5778 28.752C86.1511 29.008 85.8204 29.376 85.5858 29.856C85.3511 30.336 85.2338 30.9173 85.2338 31.6C85.2338 32.6133 85.4898 33.408 86.0018 33.984C86.5244 34.56 87.2071 34.848 88.0498 34.848C88.4338 34.848 88.7911 34.7733 89.1218 34.624C89.4524 34.4747 89.7351 34.2613 89.9698 33.984C90.2044 33.696 90.3644 33.3653 90.4498 32.992H92.0818C91.9751 33.6533 91.7298 34.224 91.3458 34.704C90.9724 35.1733 90.4978 35.5413 89.9218 35.808C89.3564 36.064 88.7324 36.192 88.0498 36.192ZM98.92 36C98.376 36 97.912 35.8933 97.528 35.68C97.144 35.456 96.856 35.1413 96.664 34.736C96.472 34.3307 96.376 33.856 96.376 33.312V25.536L97.992 24.656V33.312C97.992 33.568 98.0293 33.8027 98.104 34.016C98.1787 34.2293 98.3227 34.3947 98.536 34.512C98.76 34.6293 99.0853 34.688 99.512 34.688H102.152V36H98.92ZM94.296 28.512V27.2H100.744V28.512H94.296ZM115.429 36V34.56H119.413C119.925 34.56 120.314 34.4107 120.581 34.112C120.847 33.8027 120.981 33.3867 120.981 32.864V24.832H122.677V32.784C122.677 33.296 122.607 33.7547 122.469 34.16C122.33 34.5547 122.122 34.8907 121.845 35.168C121.578 35.4347 121.237 35.6427 120.821 35.792C120.415 35.9307 119.941 36 119.397 36H115.429ZM116.725 24.832H122.549V26.272H116.725V24.832ZM129.579 36.192C128.715 36.192 127.963 36.0267 127.323 35.696C126.683 35.3653 126.187 34.8907 125.835 34.272C125.483 33.6533 125.307 32.9013 125.307 32.016H126.987C126.987 32.8907 127.216 33.568 127.675 34.048C128.133 34.5173 128.763 34.752 129.563 34.752C130.245 34.752 130.795 34.5973 131.211 34.288C131.627 33.968 131.835 33.5253 131.835 32.96C131.835 32.576 131.717 32.2667 131.483 32.032C131.259 31.7973 130.955 31.6053 130.571 31.456C130.197 31.3067 129.787 31.1733 129.339 31.056C128.891 30.9387 128.437 30.8107 127.979 30.672C127.531 30.5227 127.115 30.336 126.731 30.112C126.357 29.888 126.053 29.5893 125.819 29.216C125.595 28.8427 125.483 28.368 125.483 27.792C125.483 27.184 125.643 26.6453 125.963 26.176C126.293 25.696 126.747 25.3227 127.323 25.056C127.909 24.7787 128.597 24.64 129.387 24.64C130.155 24.64 130.843 24.784 131.451 25.072C132.059 25.3493 132.544 25.7493 132.907 26.272C133.28 26.784 133.472 27.4027 133.483 28.128H131.787C131.776 27.7013 131.659 27.3387 131.435 27.04C131.221 26.7307 130.933 26.496 130.571 26.336C130.219 26.1653 129.824 26.08 129.387 26.08C128.757 26.08 128.245 26.2293 127.851 26.528C127.456 26.8267 127.259 27.232 127.259 27.744C127.259 28.1067 127.371 28.3947 127.595 28.608C127.829 28.8213 128.133 28.9973 128.507 29.136C128.891 29.264 129.307 29.3867 129.755 29.504C130.213 29.6107 130.667 29.7387 131.115 29.888C131.563 30.0267 131.973 30.2187 132.347 30.464C132.731 30.6987 133.035 31.0187 133.259 31.424C133.493 31.8187 133.611 32.3253 133.611 32.944C133.611 33.6053 133.435 34.1813 133.083 34.672C132.731 35.152 132.251 35.5253 131.643 35.792C131.035 36.0587 130.347 36.192 129.579 36.192Z" fill="#F2F2F2"/>
</svg>
