<svg width="193" height="60" viewBox="0 0 193 60" fill="none" xmlns="http://www.w3.org/2000/svg">
<path d="M24.7271 16.5L18.5908 18.9545L13.6818 23.8636L10 30V37.3636C10.0767 40.0723 11.1649 41.7741 12.5552 42.6131C13.8592 43.3993 15.3453 43.476 16.1363 43.5C16.189 43.5 36.995 43.4952 36.995 43.4952C36.995 43.4952 36.9998 22.6507 36.9998 22.6364C37.0046 22.0179 36.9374 21.1167 36.7792 20.4982C36.2998 18.6238 34.7274 16.9506 32.0907 16.5H24.7271ZM28.8835 18.7772H31.7695C33.7351 19.1175 34.4158 19.9325 34.6603 21.1358C34.8664 22.1809 34.7226 23.2548 34.6603 23.6383L28.8835 18.7772ZM24.7271 18.9545L26.9468 20.1195L25.1874 25.647L19.588 31.2464L13.6003 32.2292L12.4545 30L15.3165 25.3977L20.2256 20.4886L24.7271 18.9545ZM28.8116 21.7015L33.4618 25.5415H27.6179L28.8116 21.7015ZM27.407 27.7947H33.2844C32.3064 29.7795 30.9881 31.5868 29.4828 33.3223L27.407 27.7947ZM25.3647 28.7104L27.2632 33.7825L22.1911 31.8793L25.3647 28.7104ZM34.7993 29.698V39.6983L30.5758 35.47C32.1626 33.701 33.6344 31.8074 34.7993 29.698ZM18.7059 33.7106L17.4738 39.31L14.7652 34.3434L18.7059 33.7106ZM20.9591 33.8161L26.8413 35.9973C24.6025 37.9917 22.2151 39.6839 19.4442 40.614L20.9591 33.8161ZM12.2628 34.4489L15.9973 41.2804C15.2974 41.2468 14.444 41.1557 13.7777 40.753C13.0106 40.2928 12.3299 39.5066 12.2628 37.3732V34.4489ZM28.989 37.1239L33.179 41.3139H23.428C25.475 40.1586 27.3015 38.682 28.989 37.1239Z" fill="#F2F2F2"/>
<path d="M49.9354 31.328V29.888H52.7674C53.2367 29.888 53.6474 29.8133 53.9994 29.664C54.362 29.504 54.6447 29.28 54.8474 28.992C55.0607 28.704 55.1674 28.3733 55.1674 28C55.1674 27.6373 55.0767 27.328 54.8954 27.072C54.714 26.816 54.4687 26.6187 54.1594 26.48C53.85 26.3413 53.5034 26.272 53.1194 26.272H49.9354V24.832H53.1194C53.8554 24.832 54.5114 24.96 55.0874 25.216C55.6634 25.4613 56.1167 25.8187 56.4474 26.288C56.778 26.7573 56.9434 27.328 56.9434 28C56.9434 28.4267 56.842 28.8373 56.6394 29.232C56.4474 29.6267 56.1647 29.984 55.7914 30.304C55.4287 30.6133 54.986 30.864 54.4634 31.056C53.9407 31.2373 53.3487 31.328 52.6874 31.328H49.9354ZM48.7194 36V24.832H50.4154V36H48.7194ZM55.1354 36C55.0714 35.4987 54.9327 35.0027 54.7194 34.512C54.5167 34.0213 54.2394 33.552 53.8874 33.104C53.5354 32.656 53.098 32.24 52.5754 31.856C52.0634 31.472 51.466 31.1253 50.7834 30.816L52.6714 30.4C53.3754 30.752 53.978 31.1467 54.4794 31.584C54.9914 32.0107 55.4127 32.464 55.7434 32.944C56.0847 33.424 56.3407 33.92 56.5114 34.432C56.6927 34.944 56.81 35.4667 56.8634 36H55.1354ZM60.5176 27.2V32.752C60.5176 33.3707 60.6936 33.872 61.0456 34.256C61.3976 34.6293 61.8563 34.816 62.4216 34.816C63.0723 34.816 63.6483 34.5813 64.1496 34.112C64.6616 33.632 65.067 32.8907 65.3656 31.888L65.6216 33.696C65.291 34.528 64.811 35.152 64.1816 35.568C63.563 35.984 62.8856 36.192 62.1496 36.192C61.4883 36.192 60.9123 36.0533 60.4216 35.776C59.9416 35.488 59.5683 35.0933 59.3016 34.592C59.035 34.0907 58.9016 33.4987 58.9016 32.816V27.2H60.5176ZM66.7896 27.2V36H65.2536L65.1736 34.016V27.2H66.7896ZM73.8999 27.008C74.6892 27.008 75.3772 27.2053 75.9639 27.6C76.5612 27.984 77.0305 28.5227 77.3719 29.216C77.7132 29.9093 77.8839 30.704 77.8839 31.6C77.8839 32.4853 77.7132 33.2747 77.3719 33.968C77.0305 34.6613 76.5612 35.2053 75.9639 35.6C75.3772 35.9947 74.6892 36.192 73.8999 36.192C73.2919 36.192 72.7319 36.064 72.2199 35.808C71.7185 35.5413 71.3132 35.1947 71.0039 34.768L70.9559 36H69.4199V24.24H71.0359V28.368C71.3452 27.9413 71.7505 27.6107 72.2519 27.376C72.7532 27.1307 73.3025 27.008 73.8999 27.008ZM73.5479 34.832C74.0919 34.832 74.5665 34.6933 74.9719 34.416C75.3772 34.1387 75.6919 33.76 75.9159 33.28C76.1399 32.7893 76.2519 32.2293 76.2519 31.6C76.2519 30.96 76.1399 30.4 75.9159 29.92C75.6919 29.4293 75.3772 29.0507 74.9719 28.784C74.5665 28.5067 74.0919 28.368 73.5479 28.368C72.9825 28.368 72.4759 28.528 72.0279 28.848C71.5799 29.1573 71.2492 29.5947 71.0359 30.16V33.024C71.2492 33.5787 71.5799 34.0213 72.0279 34.352C72.4759 34.672 72.9825 34.832 73.5479 34.832ZM82.9621 31.552L83.7941 33.744L84.6261 31.536L86.4661 27.2H88.1461L84.0661 36.816C83.8208 37.3813 83.5541 37.824 83.2661 38.144C82.9888 38.4747 82.6741 38.704 82.3221 38.832C81.9701 38.9707 81.5595 39.04 81.0901 39.04H79.5221V37.728H80.9781C81.2555 37.728 81.4901 37.664 81.6821 37.536C81.8848 37.4187 82.0661 37.2373 82.2261 36.992C82.3861 36.7573 82.5461 36.448 82.7061 36.064L82.9461 35.488L79.4421 27.2H81.1221L82.9621 31.552ZM104.575 36.192C103.668 36.192 102.884 36.0053 102.223 35.632C101.572 35.2587 101.071 34.7307 100.719 34.048C100.367 33.3547 100.191 32.5387 100.191 31.6C100.191 30.64 100.367 29.824 100.719 29.152C101.071 28.4693 101.572 27.9413 102.223 27.568C102.884 27.1947 103.673 27.008 104.591 27.008C105.956 27.008 107.028 27.4187 107.807 28.24C108.585 29.0507 108.975 30.1707 108.975 31.6C108.975 32.5387 108.799 33.3547 108.447 34.048C108.095 34.7307 107.588 35.2587 106.927 35.632C106.276 36.0053 105.492 36.192 104.575 36.192ZM104.591 34.848C105.444 34.848 106.116 34.56 106.607 33.984C107.108 33.3973 107.359 32.6027 107.359 31.6C107.359 30.5867 107.108 29.792 106.607 29.216C106.116 28.64 105.444 28.352 104.591 28.352C103.727 28.352 103.049 28.64 102.559 29.216C102.068 29.792 101.823 30.5867 101.823 31.6C101.823 32.6027 102.068 33.3973 102.559 33.984C103.049 34.56 103.727 34.848 104.591 34.848ZM117.365 36V30.448C117.365 29.8293 117.189 29.3333 116.837 28.96C116.485 28.576 116.026 28.384 115.461 28.384C114.81 28.384 114.229 28.624 113.717 29.104C113.216 29.5733 112.816 30.3093 112.517 31.312L112.261 29.504C112.592 28.672 113.066 28.048 113.685 27.632C114.314 27.216 114.997 27.008 115.733 27.008C116.394 27.008 116.965 27.152 117.445 27.44C117.936 27.7173 118.314 28.1067 118.581 28.608C118.848 29.1093 118.981 29.7013 118.981 30.384V36H117.365ZM111.093 36V27.2H112.629L112.709 29.184V36H111.093ZM133.185 31.328V29.888H136.017C136.487 29.888 136.897 29.8133 137.249 29.664C137.612 29.504 137.895 29.28 138.097 28.992C138.311 28.704 138.417 28.3733 138.417 28C138.417 27.6373 138.327 27.328 138.145 27.072C137.964 26.816 137.719 26.6187 137.409 26.48C137.1 26.3413 136.753 26.272 136.369 26.272H133.185V24.832H136.369C137.105 24.832 137.761 24.96 138.337 25.216C138.913 25.4613 139.367 25.8187 139.697 26.288C140.028 26.7573 140.193 27.328 140.193 28C140.193 28.4267 140.092 28.8373 139.889 29.232C139.697 29.6267 139.415 29.984 139.041 30.304C138.679 30.6133 138.236 30.864 137.713 31.056C137.191 31.2373 136.599 31.328 135.937 31.328H133.185ZM131.969 36V24.832H133.665V36H131.969ZM138.385 36C138.321 35.4987 138.183 35.0027 137.969 34.512C137.767 34.0213 137.489 33.552 137.137 33.104C136.785 32.656 136.348 32.24 135.825 31.856C135.313 31.472 134.716 31.1253 134.033 30.816L135.921 30.4C136.625 30.752 137.228 31.1467 137.729 31.584C138.241 32.0107 138.663 32.464 138.993 32.944C139.335 33.424 139.591 33.92 139.761 34.432C139.943 34.944 140.06 35.4667 140.113 36H138.385ZM148.52 36L148.456 34V30.24C148.456 29.6107 148.248 29.12 147.832 28.768C147.426 28.4053 146.866 28.224 146.152 28.224C145.458 28.224 144.893 28.384 144.456 28.704C144.018 29.0133 143.778 29.4453 143.736 30H142.152C142.205 29.3707 142.408 28.8373 142.76 28.4C143.112 27.952 143.581 27.6107 144.168 27.376C144.754 27.1307 145.432 27.008 146.2 27.008C146.989 27.008 147.672 27.1413 148.248 27.408C148.824 27.664 149.266 28.0373 149.576 28.528C149.896 29.0187 150.056 29.616 150.056 30.32V36H148.52ZM145.336 36.192C144.76 36.192 144.253 36.0907 143.816 35.888C143.378 35.6747 143.037 35.376 142.792 34.992C142.546 34.5973 142.424 34.1387 142.424 33.616C142.424 32.7093 142.77 32.0053 143.464 31.504C144.168 31.0027 145.149 30.752 146.408 30.752H148.664V31.952H146.344C145.618 31.952 145.048 32.0907 144.632 32.368C144.226 32.6453 144.024 33.0347 144.024 33.536C144.024 33.952 144.168 34.2773 144.456 34.512C144.754 34.7467 145.154 34.864 145.656 34.864C146.296 34.864 146.861 34.6933 147.352 34.352C147.853 34 148.258 33.52 148.568 32.912L148.744 34.096C148.466 34.768 148.04 35.2853 147.464 35.648C146.888 36.0107 146.178 36.192 145.336 36.192ZM155.902 36V27.2H157.518V36H155.902ZM152.654 36V34.688H160.542V36H152.654ZM153.822 28.512V27.2H156.702V28.512H153.822ZM155.79 25.696V23.952H157.598V25.696H155.79ZM166.228 36V24.24H167.844V36H166.228ZM162.98 36V34.688H171.108V36H162.98ZM164.148 25.552V24.24H167.028V25.552H164.148ZM177.674 36.192C176.896 36.192 176.208 36.0587 175.61 35.792C175.024 35.5147 174.57 35.1307 174.25 34.64C173.93 34.1387 173.765 33.5413 173.754 32.848H175.274C175.274 33.4987 175.493 34.0107 175.93 34.384C176.368 34.7573 176.944 34.944 177.658 34.944C178.266 34.944 178.752 34.832 179.114 34.608C179.488 34.3733 179.674 34.0587 179.674 33.664C179.674 33.3547 179.568 33.1093 179.354 32.928C179.152 32.736 178.88 32.5867 178.538 32.48C178.197 32.3733 177.818 32.2827 177.402 32.208C176.997 32.1227 176.586 32.0267 176.17 31.92C175.765 31.8027 175.392 31.6587 175.05 31.488C174.709 31.3067 174.432 31.0667 174.218 30.768C174.005 30.4693 173.898 30.08 173.898 29.6C173.898 29.0987 174.042 28.656 174.33 28.272C174.618 27.8773 175.024 27.568 175.546 27.344C176.08 27.12 176.709 27.008 177.434 27.008C178.533 27.008 179.413 27.264 180.074 27.776C180.746 28.2773 181.109 28.9707 181.162 29.856H179.642C179.61 29.344 179.397 28.9493 179.002 28.672C178.618 28.384 178.096 28.24 177.434 28.24C176.816 28.24 176.341 28.3627 176.01 28.608C175.69 28.8533 175.53 29.1627 175.53 29.536C175.53 29.824 175.637 30.0533 175.85 30.224C176.064 30.384 176.341 30.512 176.682 30.608C177.024 30.6933 177.397 30.7733 177.802 30.848C178.218 30.912 178.629 30.9973 179.034 31.104C179.45 31.2107 179.829 31.36 180.17 31.552C180.512 31.7333 180.784 31.984 180.986 32.304C181.2 32.624 181.306 33.04 181.306 33.552C181.306 34.3733 180.976 35.0187 180.314 35.488C179.653 35.9573 178.773 36.192 177.674 36.192Z" fill="#F2F2F2"/>
</svg>
